<?xml version="1.0" encoding="UTF-8"?><svg id="a" xmlns="http://www.w3.org/2000/svg" width="123.82mm" height="199.73mm" viewBox="0 0 351 566.17"><defs><style>.b{fill:#685a48;}.c{fill:none;stroke:#5c5c5c;stroke-miterlimit:10;}</style></defs><rect class="c" x=".5" y=".5" width="350" height="565.17"/><polygon class="b" points="42.13 27.47 27.5 27.47 27.5 42.5 42.13 27.47"/><polygon class="b" points="42.13 215.9 27.5 215.9 27.5 200.87 42.13 215.9"/><path class="c" d="M249.41,430.75c-58.24,67.41-132.62,102.59-221.82,108.46V242.96H323.8c-3.95,71.06-27.97,134.06-74.39,187.79Z"/><path class="b" d="M323.43,538.9H148.24c79.94-37.11,138.24-95.44,175.19-177.32v177.32Z"/><path class="c" d="M134.84,28.7c84.32,.65,182.02,75.22,188.08,187.46H134.84V28.7Z"/><path class="c" d="M107.89,28.55V108.24H28.46c3.43-36.53,35.81-74.58,79.42-79.69Z"/><path class="c" d="M107.92,135.13v79.96c-44.03-5.64-76.21-43.58-79.44-79.96H107.92Z"/><path class="b" d="M231.35,27.38h92.2V121.77s-34.14-63.33-92.2-94.39Z"/></svg>